<?xml version="1.0" encoding="UTF-8"?>
<svg id="Layer_2" data-name="Layer 2" xmlns="http://www.w3.org/2000/svg" viewBox="0 0 606.19 651.3">
  <defs>
    <style>
      .cls-1 {
        fill: #16a34a;
        stroke-width: 0px;
      }
    </style>
  </defs>
  <g id="Layer_1-2" data-name="Layer 1">
    <path class="cls-1" d="m282.8,509.28v.62h0c0,38.91-15.9,74.27-41.52,99.88-25.61,25.61-60.97,41.52-99.88,41.52s-74.27-15.9-99.88-41.52C15.9,584.17,0,548.81,0,509.9V141.4c0-38.91,15.9-74.27,41.52-99.88C67.13,15.9,102.49,0,141.4,0h255.03c57.71,0,110.16,23.59,148.16,61.59,38,38.01,61.6,90.45,61.6,148.16s-23.59,110.16-61.6,148.16c-38,38.01-90.45,61.6-148.16,61.6v-.1c-44.58.22-73.67,9.87-90.93,26.09-15.98,15.01-22.59,37.29-22.69,63.78M51.9,250.68v259.22c0,24.58,10.08,46.96,26.31,63.19,16.23,16.23,38.6,26.31,63.19,26.31s46.96-10.08,63.19-26.31c16.24-16.23,26.31-38.6,26.31-63.19h0V250.68c-24.42,20.04-55.61,32.11-89.5,32.11s-65.09-12.07-89.5-32.11Zm230.9-109.29v255.97c26.29-18.62,63.25-29.42,113.53-29.65l.1-.1c43.39,0,82.85-17.77,111.47-46.39,28.62-28.62,46.39-68.09,46.39-111.47s-17.77-82.85-46.39-111.47c-28.62-28.62-68.08-46.39-111.47-46.39h-255.03c-24.59,0-46.96,10.08-63.19,26.31-16.23,16.23-26.31,38.6-26.31,63.19s10.08,46.96,26.31,63.19c16.23,16.23,38.6,26.31,63.19,26.31s46.96-10.08,63.19-26.31c16.23-16.23,26.31-38.6,26.31-63.19,0-14.33,11.62-25.95,25.95-25.95s25.95,11.62,25.95,25.95Z"/>
  </g>
</svg>